QuixoticSeven-Bold.ufo
<glyph name="exclam" format="2">
  <advance width="583"/>
  <unicode hex="0021"/>
  <outline>
    <contour>
      <point x="513.0" y="0.0" type="curve" smooth="yes"/>
      <point x="513.0" y="39.0"/>
      <point x="544.0" y="70.0"/>
      <point x="583.0" y="70.0" type="curve" smooth="yes"/>
      <point x="622.0" y="70.0"/>
      <point x="653.0" y="39.0"/>
      <point x="653.0" y="0.0" type="curve" smooth="yes"/>
      <point x="653.0" y="-39.0"/>
      <point x="622.0" y="-70.0"/>
      <point x="583.0" y="-70.0" type="curve" smooth="yes"/>
      <point x="544.0" y="-70.0"/>
      <point x="513.0" y="-39.0"/>
    </contour>
    <contour>
      <point x="473.0" y="52.0" type="line" smooth="yes"/>
      <point x="381.0" y="144.0" type="line" smooth="yes"/>
      <point x="381.0" y="294.0" type="line" smooth="yes"/>
      <point x="473.0" y="386.0" type="line" smooth="yes"/>
      <point x="511.0" y="348.0" type="line" smooth="yes"/>
      <point x="511.0" y="90.0" type="line" smooth="yes"/>
    </contour>
    <contour>
      <point x="473.0" y="414.0" type="line" smooth="yes"/>
      <point x="381.0" y="506.0" type="line" smooth="yes"/>
      <point x="381.0" y="656.0" type="line" smooth="yes"/>
      <point x="473.0" y="748.0" type="line" smooth="yes"/>
      <point x="511.0" y="710.0" type="line" smooth="yes"/>
      <point x="511.0" y="452.0" type="line" smooth="yes"/>
    </contour>
  </outline>
</glyph>
<glyph name="quotedbl" format="2">
  <advance width="583"/>
  <unicode hex="0022"/>
  <outline>
    <contour>
      <point x="110.0" y="414.0" type="line" smooth="yes"/>
      <point x="72.0" y="452.0" type="line" smooth="yes"/>
      <point x="72.0" y="710.0" type="line" smooth="yes"/>
      <point x="110.0" y="748.0" type="line" smooth="yes"/>
      <point x="202.0" y="656.0" type="line" smooth="yes"/>
      <point x="202.0" y="506.0" type="line" smooth="yes"/>
    </contour>
    <contour>
      <point x="473.0" y="414.0" type="line" smooth="yes"/>
      <point x="381.0" y="506.0" type="line" smooth="yes"/>
      <point x="381.0" y="656.0" type="line" smooth="yes"/>
      <point x="473.0" y="748.0" type="line" smooth="yes"/>
      <point x="511.0" y="710.0" type="line" smooth="yes"/>
      <point x="511.0" y="452.0" type="line" smooth="yes"/>
    </contour>
  </outline>
</glyph>
<glyph name="hyphen" format="2">
  <advance width="583"/>
  <unicode hex="002D"/>
  <outline>
    <contour>
      <point x="124.0" y="400.0" type="line" smooth="yes"/>
      <point x="189.0" y="465.0" type="line" smooth="yes"/>
      <point x="394.0" y="465.0" type="line" smooth="yes"/>
      <point x="459.0" y="400.0" type="line" smooth="yes"/>
      <point x="394.0" y="335.0" type="line" smooth="yes"/>
      <point x="189.0" y="335.0" type="line" smooth="yes"/>
    </contour>
  </outline>
</glyph>
<glyph name="period" format="2">
  <advance height="970"/>
  <unicode hex="002E"/>
  <outline>
    <contour>
      <point x="-70.0" y="-30.0" type="curve" smooth="yes"/>
      <point x="-70.0" y="9.0"/>
      <point x="-39.0" y="40.0"/>
      <point x="0.0" y="40.0" type="curve" smooth="yes"/>
      <point x="39.0" y="40.0"/>
      <point x="70.0" y="9.0"/>
      <point x="70.0" y="-30.0" type="curve" smooth="yes"/>
      <point x="70.0" y="-69.0"/>
      <point x="39.0" y="-100.0"/>
      <point x="0.0" y="-100.0" type="curve" smooth="yes"/>
      <point x="-39.0" y="-100.0"/>
      <point x="-70.0" y="-69.0"/>
    </contour>
  </outline>
</glyph>
<glyph name="one" format="2">
  <advance width="633"/>
  <unicode hex="0031"/>
  <outline>
    <contour>
      <point x="497.0" y="52.0" type="line" smooth="yes"/>
      <point x="405.0" y="144.0" type="line" smooth="yes"/>
      <point x="405.0" y="294.0" type="line" smooth="yes"/>
      <point x="497.0" y="386.0" type="line" smooth="yes"/>
      <point x="535.0" y="348.0" type="line" smooth="yes"/>
      <point x="535.0" y="90.0" type="line" smooth="yes"/>
    </contour>
    <contour>
      <point x="497.0" y="414.0" type="line" smooth="yes"/>
      <point x="405.0" y="506.0" type="line" smooth="yes"/>
      <point x="405.0" y="656.0" type="line" smooth="yes"/>
      <point x="497.0" y="748.0" type="line" smooth="yes"/>
      <point x="535.0" y="710.0" type="line" smooth="yes"/>
      <point x="535.0" y="452.0" type="line" smooth="yes"/>
    </contour>
  </outline>
</glyph>
<glyph name="colon" format="2">
  <advance width="194"/>
  <unicode hex="003A"/>
  <outline>
    <contour>
      <point x="27.0" y="240.0" type="curve" smooth="yes"/>
      <point x="27.0" y="279.0"/>
      <point x="58.0" y="310.0"/>
      <point x="97.0" y="310.0" type="curve" smooth="yes"/>
      <point x="136.0" y="310.0"/>
      <point x="167.0" y="279.0"/>
      <point x="167.0" y="240.0" type="curve" smooth="yes"/>
      <point x="167.0" y="201.0"/>
      <point x="136.0" y="170.0"/>
      <point x="97.0" y="170.0" type="curve" smooth="yes"/>
      <point x="58.0" y="170.0"/>
      <point x="27.0" y="201.0"/>
    </contour>
    <contour>
      <point x="27.0" y="560.0" type="curve" smooth="yes"/>
      <point x="27.0" y="599.0"/>
      <point x="58.0" y="630.0"/>
      <point x="97.0" y="630.0" type="curve" smooth="yes"/>
      <point x="136.0" y="630.0"/>
      <point x="167.0" y="599.0"/>
      <point x="167.0" y="560.0" type="curve" smooth="yes"/>
      <point x="167.0" y="521.0"/>
      <point x="136.0" y="490.0"/>
      <point x="97.0" y="490.0" type="curve" smooth="yes"/>
      <point x="58.0" y="490.0"/>
      <point x="27.0" y="521.0"/>
    </contour>
  </outline>
</glyph>
<glyph name="greater" format="2">
  <advance width="633"/>
  <unicode hex="003E"/>
  <outline>
    <contour>
      <point x="150.0" y="400.0" type="line" smooth="yes"/>
      <point x="215.0" y="465.0" type="line" smooth="yes"/>
      <point x="418.0" y="465.0" type="line" smooth="yes"/>
      <point x="483.0" y="400.0" type="line" smooth="yes"/>
      <point x="418.0" y="335.0" type="line" smooth="yes"/>
      <point x="215.0" y="335.0" type="line" smooth="yes"/>
    </contour>
    <contour>
      <point x="497.0" y="414.0" type="line" smooth="yes"/>
      <point x="405.0" y="506.0" type="line" smooth="yes"/>
      <point x="405.0" y="656.0" type="line" smooth="yes"/>
      <point x="497.0" y="748.0" type="line" smooth="yes"/>
      <point x="535.0" y="710.0" type="line" smooth="yes"/>
      <point x="535.0" y="452.0" type="line" smooth="yes"/>
    </contour>
    <contour>
      <point x="483.0" y="762.0" type="line" smooth="yes"/>
      <point x="391.0" y="670.0" type="line" smooth="yes"/>
      <point x="242.0" y="670.0" type="line" smooth="yes"/>
      <point x="150.0" y="762.0" type="line" smooth="yes"/>
      <point x="188.0" y="800.0" type="line" smooth="yes"/>
      <point x="445.0" y="800.0" type="line" smooth="yes"/>
    </contour>
  </outline>
</glyph>
<glyph name="U" format="2">
  <advance width="633"/>
  <unicode hex="0055"/>
  <outline>
    <contour>
      <point x="136.0" y="414.0" type="line" smooth="yes"/>
      <point x="98.0" y="452.0" type="line" smooth="yes"/>
      <point x="98.0" y="710.0" type="line" smooth="yes"/>
      <point x="136.0" y="748.0" type="line" smooth="yes"/>
      <point x="228.0" y="656.0" type="line" smooth="yes"/>
      <point x="228.0" y="506.0" type="line" smooth="yes"/>
    </contour>
    <contour>
      <point x="136.0" y="52.0" type="line" smooth="yes"/>
      <point x="98.0" y="90.0" type="line" smooth="yes"/>
      <point x="98.0" y="348.0" type="line" smooth="yes"/>
      <point x="136.0" y="386.0" type="line" smooth="yes"/>
      <point x="228.0" y="294.0" type="line" smooth="yes"/>
      <point x="228.0" y="144.0" type="line" smooth="yes"/>
    </contour>
    <contour>
      <point x="150.0" y="38.0" type="line" smooth="yes"/>
      <point x="242.0" y="130.0" type="line" smooth="yes"/>
      <point x="391.0" y="130.0" type="line" smooth="yes"/>
      <point x="483.0" y="38.0" type="line" smooth="yes"/>
      <point x="445.0" y="0.0" type="line" smooth="yes"/>
      <point x="188.0" y="0.0" type="line" smooth="yes"/>
    </contour>
    <contour>
      <point x="497.0" y="52.0" type="line" smooth="yes"/>
      <point x="405.0" y="144.0" type="line" smooth="yes"/>
      <point x="405.0" y="294.0" type="line" smooth="yes"/>
      <point x="497.0" y="386.0" type="line" smooth="yes"/>
      <point x="535.0" y="348.0" type="line" smooth="yes"/>
      <point x="535.0" y="90.0" type="line" smooth="yes"/>
    </contour>
    <contour>
      <point x="497.0" y="414.0" type="line" smooth="yes"/>
      <point x="405.0" y="506.0" type="line" smooth="yes"/>
      <point x="405.0" y="656.0" type="line" smooth="yes"/>
      <point x="497.0" y="748.0" type="line" smooth="yes"/>
      <point x="535.0" y="710.0" type="line" smooth="yes"/>
      <point x="535.0" y="452.0" type="line" smooth="yes"/>
    </contour>
  </outline>
</glyph>
<glyph name="asciicircum" format="2">
  <advance width="633"/>
  <unicode hex="005E"/>
  <outline>
    <contour>
      <point x="136.0" y="414.0" type="line" smooth="yes"/>
      <point x="98.0" y="452.0" type="line" smooth="yes"/>
      <point x="98.0" y="710.0" type="line" smooth="yes"/>
      <point x="136.0" y="748.0" type="line" smooth="yes"/>
      <point x="228.0" y="656.0" type="line" smooth="yes"/>
      <point x="228.0" y="506.0" type="line" smooth="yes"/>
    </contour>
    <contour>
      <point x="497.0" y="414.0" type="line" smooth="yes"/>
      <point x="405.0" y="506.0" type="line" smooth="yes"/>
      <point x="405.0" y="656.0" type="line" smooth="yes"/>
      <point x="497.0" y="748.0" type="line" smooth="yes"/>
      <point x="535.0" y="710.0" type="line" smooth="yes"/>
      <point x="535.0" y="452.0" type="line" smooth="yes"/>
    </contour>
    <contour>
      <point x="483.0" y="762.0" type="line" smooth="yes"/>
      <point x="391.0" y="670.0" type="line" smooth="yes"/>
      <point x="242.0" y="670.0" type="line" smooth="yes"/>
      <point x="150.0" y="762.0" type="line" smooth="yes"/>
      <point x="188.0" y="800.0" type="line" smooth="yes"/>
      <point x="445.0" y="800.0" type="line" smooth="yes"/>
    </contour>
  </outline>
</glyph>
<glyph name="ellipsis" format="2">
  <advance width="633"/>
  <unicode hex="2026"/>
  <outline>
    <contour>
      <point x="563.0" y="0.0" type="curve" smooth="yes"/>
      <point x="563.0" y="39.0"/>
      <point x="594.0" y="70.0"/>
      <point x="633.0" y="70.0" type="curve" smooth="yes"/>
      <point x="672.0" y="70.0"/>
      <point x="703.0" y="39.0"/>
      <point x="703.0" y="0.0" type="curve" smooth="yes"/>
      <point x="703.0" y="-39.0"/>
      <point x="672.0" y="-70.0"/>
      <point x="633.0" y="-70.0" type="curve" smooth="yes"/>
      <point x="594.0" y="-70.0"/>
      <point x="563.0" y="-39.0"/>
    </contour>
    <contour>
      <point x="136.0" y="52.0" type="line" smooth="yes"/>
      <point x="98.0" y="90.0" type="line" smooth="yes"/>
      <point x="98.0" y="348.0" type="line" smooth="yes"/>
      <point x="136.0" y="386.0" type="line" smooth="yes"/>
      <point x="228.0" y="294.0" type="line" smooth="yes"/>
      <point x="228.0" y="144.0" type="line" smooth="yes"/>
    </contour>
    <contour>
      <point x="497.0" y="52.0" type="line" smooth="yes"/>
      <point x="405.0" y="144.0" type="line" smooth="yes"/>
      <point x="405.0" y="294.0" type="line" smooth="yes"/>
      <point x="497.0" y="386.0" type="line" smooth="yes"/>
      <point x="535.0" y="348.0" type="line" smooth="yes"/>
      <point x="535.0" y="90.0" type="line" smooth="yes"/>
    </contour>
  </outline>
</glyph>
<glyph name="unie671" format="2">
  <advance width="633"/>
  <unicode hex="E671"/>
  <outline>
    <contour>
      <point x="136.0" y="52.0" type="line" smooth="yes"/>
      <point x="98.0" y="90.0" type="line" smooth="yes"/>
      <point x="98.0" y="348.0" type="line" smooth="yes"/>
      <point x="136.0" y="386.0" type="line" smooth="yes"/>
      <point x="228.0" y="294.0" type="line" smooth="yes"/>
      <point x="228.0" y="144.0" type="line" smooth="yes"/>
    </contour>
    <contour>
      <point x="497.0" y="52.0" type="line" smooth="yes"/>
      <point x="405.0" y="144.0" type="line" smooth="yes"/>
      <point x="405.0" y="294.0" type="line" smooth="yes"/>
      <point x="497.0" y="386.0" type="line" smooth="yes"/>
      <point x="535.0" y="348.0" type="line" smooth="yes"/>
      <point x="535.0" y="90.0" type="line" smooth="yes"/>
    </contour>
  </outline>
</glyph>
<glyph name="unie672" format="2">
  <advance width="583"/>
  <unicode hex="E672"/>
  <outline>
    <contour>
      <point x="110.0" y="52.0" type="line" smooth="yes"/>
      <point x="72.0" y="90.0" type="line" smooth="yes"/>
      <point x="72.0" y="348.0" type="line" smooth="yes"/>
      <point x="110.0" y="386.0" type="line" smooth="yes"/>
      <point x="202.0" y="294.0" type="line" smooth="yes"/>
      <point x="202.0" y="144.0" type="line" smooth="yes"/>
    </contour>
    <contour>
      <point x="124.0" y="38.0" type="line" smooth="yes"/>
      <point x="216.0" y="130.0" type="line" smooth="yes"/>
      <point x="367.0" y="130.0" type="line" smooth="yes"/>
      <point x="459.0" y="38.0" type="line" smooth="yes"/>
      <point x="421.0" y="0.0" type="line" smooth="yes"/>
      <point x="162.0" y="0.0" type="line" smooth="yes"/>
    </contour>
  </outline>
</glyph>
<glyph name=".notdef" format="2">
  <advance width="633"/>
  <outline>
    <contour>
      <point x="228.0" y="130.0" type="line" smooth="yes"/>
      <point x="406.0" y="130.0" type="line" smooth="yes"/>
      <point x="406.0" y="670.0" type="line" smooth="yes"/>
      <point x="228.0" y="670.0" type="line" smooth="yes"/>
    </contour>
    <contour>
      <point x="98.0" y="0.0" type="line" smooth="yes"/>
      <point x="98.0" y="800.0" type="line" smooth="yes"/>
      <point x="536.0" y="800.0" type="line" smooth="yes"/>
      <point x="536.0" y="0.0" type="line" smooth="yes"/>
    </contour>
  </outline>
</glyph>
<glyph name="segment-c" format="2">
  <outline>
    <contour>
      <point x="462.0" y="52.0" type="line" smooth="yes"/>
      <point x="370.0" y="144.0" type="line" smooth="yes"/>
      <point x="370.0" y="294.0" type="line" smooth="yes"/>
      <point x="462.0" y="386.0" type="line" smooth="yes"/>
      <point x="500.0" y="348.0" type="line" smooth="yes"/>
      <point x="500.0" y="90.0" type="line" smooth="yes"/>
    </contour>
  </outline>
</glyph>
<glyph name="segment-g" format="2">
  <outline>
    <contour>
      <point x="152.0" y="400.0" type="line" smooth="yes"/>
      <point x="217.0" y="465.0" type="line" smooth="yes"/>
      <point x="383.0" y="465.0" type="line" smooth="yes"/>
      <point x="448.0" y="400.0" type="line" smooth="yes"/>
      <point x="383.0" y="335.0" type="line" smooth="yes"/>
      <point x="217.0" y="335.0" type="line" smooth="yes"/>
    </contour>
  </outline>
</glyph>
<glyph name="segment-h" format="2">
  <outline>
    <contour>
      <point x="250.0" y="650.0" type="line" smooth="yes"/>
      <point x="250.0" y="384.0" type="line" smooth="yes"/>
      <point x="205.0" y="485.0" type="line" smooth="yes"/>
      <point x="215.0" y="485.0" type="line" smooth="yes"/>
      <point x="215.0" y="751.0" type="line" smooth="yes"/>
      <point x="260.0" y="650.0" type="line" smooth="yes"/>
    </contour>
  </outline>
</glyph>
<glyph name="segment-j" format="2">
  <outline>
    <contour>
      <point x="350.0" y="650.0" type="line" smooth="yes"/>
      <point x="350.0" y="384.0" type="line" smooth="yes"/>
      <point x="395.0" y="485.0" type="line" smooth="yes"/>
      <point x="385.0" y="485.0" type="line" smooth="yes"/>
      <point x="385.0" y="751.0" type="line" smooth="yes"/>
      <point x="340.0" y="650.0" type="line" smooth="yes"/>
    </contour>
  </outline>
</glyph>
<glyph name="segment-k" format="2">
  <advance height="150" width="250"/>
  <outline>
    <contour>
      <point x="250.0" y="150.0" type="line" smooth="yes"/>
      <point x="250.0" y="416.0" type="line" smooth="yes"/>
      <point x="205.0" y="315.0" type="line" smooth="yes"/>
      <point x="215.0" y="315.0" type="line" smooth="yes"/>
      <point x="215.0" y="49.0" type="line" smooth="yes"/>
      <point x="260.0" y="150.0" type="line" smooth="yes"/>
    </contour>
  </outline>
</glyph>
<glyph name="segment-m" format="2">
  <outline>
    <contour>
      <point x="350.0" y="150.0" type="line" smooth="yes"/>
      <point x="350.0" y="416.0" type="line" smooth="yes"/>
      <point x="395.0" y="315.0" type="line" smooth="yes"/>
      <point x="385.0" y="315.0" type="line" smooth="yes"/>
      <point x="385.0" y="49.0" type="line" smooth="yes"/>
      <point x="340.0" y="150.0" type="line" smooth="yes"/>
    </contour>
  </outline>
</glyph>
<glyph name="segment-r" format="2">
  <advance width="600"/>
  <outline>
    <contour>
      <point x="530.0" y="0.0" type="curve" smooth="yes"/>
      <point x="530.0" y="39.0"/>
      <point x="561.0" y="70.0"/>
      <point x="600.0" y="70.0" type="curve" smooth="yes"/>
      <point x="639.0" y="70.0"/>
      <point x="670.0" y="39.0"/>
      <point x="670.0" y="0.0" type="curve" smooth="yes"/>
      <point x="670.0" y="-39.0"/>
      <point x="639.0" y="-70.0"/>
      <point x="600.0" y="-70.0" type="curve" smooth="yes"/>
      <point x="561.0" y="-70.0"/>
      <point x="530.0" y="-39.0"/>
    </contour>
  </outline>
</glyph>
<glyph name="segment_d" format="2">
  <outline>
    <contour>
      <point x="152.0" y="38.0" type="line" smooth="yes"/>
      <point x="244.0" y="130.0" type="line" smooth="yes"/>
      <point x="356.0" y="130.0" type="line" smooth="yes"/>
      <point x="448.0" y="38.0" type="line" smooth="yes"/>
      <point x="410.0" y="0.0" type="line" smooth="yes"/>
      <point x="190.0" y="0.0" type="line" smooth="yes"/>
    </contour>
  </outline>
</glyph>
<glyph name="segment_e" format="2">
  <outline>
    <contour>
      <point x="136.0" y="52.0" type="line" smooth="yes"/>
      <point x="98.0" y="90.0" type="line" smooth="yes"/>
      <point x="98.0" y="348.0" type="line" smooth="yes"/>
      <point x="136.0" y="386.0" type="line" smooth="yes"/>
      <point x="228.0" y="294.0" type="line" smooth="yes"/>
      <point x="228.0" y="144.0" type="line" smooth="yes"/>
    </contour>
  </outline>
</glyph>
<glyph name="segment_f" format="2">
  <outline>
    <contour>
      <point x="138.0" y="414.0" type="line" smooth="yes"/>
      <point x="100.0" y="452.0" type="line" smooth="yes"/>
      <point x="100.0" y="710.0" type="line" smooth="yes"/>
      <point x="138.0" y="748.0" type="line" smooth="yes"/>
      <point x="230.0" y="656.0" type="line" smooth="yes"/>
      <point x="230.0" y="506.0" type="line" smooth="yes"/>
    </contour>
  </outline>
</glyph>
<glyph name="segment_g" format="2">
  <outline>
    <contour>
      <point x="150.0" y="400.0" type="line" smooth="yes"/>
      <point x="215.0" y="465.0" type="line" smooth="yes"/>
      <point x="418.0" y="465.0" type="line" smooth="yes"/>
      <point x="483.0" y="400.0" type="line" smooth="yes"/>
      <point x="418.0" y="335.0" type="line" smooth="yes"/>
      <point x="215.0" y="335.0" type="line" smooth="yes"/>
    </contour>
  </outline>
</glyph>
<glyph name="segment_h" format="2">
  <outline>
    <contour>
      <point x="248.0" y="650.0" type="line" smooth="yes"/>
      <point x="248.0" y="409.0" type="line" smooth="yes"/>
      <point x="222.0" y="485.0" type="line" smooth="yes"/>
      <point x="232.0" y="485.0" type="line" smooth="yes"/>
      <point x="232.0" y="726.0" type="line" smooth="yes"/>
      <point x="258.0" y="650.0" type="line" smooth="yes"/>
    </contour>
  </outline>
</glyph>
<glyph name="segment_i" format="2">
  <outline>
    <contour>
      <point x="251.0" y="650.0" type="line" smooth="yes"/>
      <point x="381.0" y="650.0" type="line" smooth="yes"/>
      <point x="381.0" y="479.0" type="line" smooth="yes"/>
      <point x="316.0" y="414.0" type="line" smooth="yes"/>
      <point x="251.0" y="479.0" type="line" smooth="yes"/>
    </contour>
  </outline>
</glyph>
<glyph name="segment_j" format="2">
  <outline>
    <contour>
      <point x="385.0" y="650.0" type="line" smooth="yes"/>
      <point x="385.0" y="409.0" type="line" smooth="yes"/>
      <point x="411.0" y="485.0" type="line" smooth="yes"/>
      <point x="401.0" y="485.0" type="line" smooth="yes"/>
      <point x="401.0" y="726.0" type="line" smooth="yes"/>
      <point x="375.0" y="650.0" type="line" smooth="yes"/>
    </contour>
  </outline>
</glyph>
<glyph name="segment_k" format="2">
  <advance height="150" width="248"/>
  <outline>
    <contour>
      <point x="248.0" y="150.0" type="line" smooth="yes"/>
      <point x="248.0" y="391.0" type="line" smooth="yes"/>
      <point x="222.0" y="315.0" type="line" smooth="yes"/>
      <point x="232.0" y="315.0" type="line" smooth="yes"/>
      <point x="232.0" y="74.0" type="line" smooth="yes"/>
      <point x="258.0" y="150.0" type="line" smooth="yes"/>
    </contour>
  </outline>
</glyph>
<glyph name="segment_l" format="2">
  <outline>
    <contour>
      <point x="251.0" y="150.0" type="line" smooth="yes"/>
      <point x="251.0" y="321.0" type="line" smooth="yes"/>
      <point x="316.0" y="386.0" type="line" smooth="yes"/>
      <point x="381.0" y="321.0" type="line" smooth="yes"/>
      <point x="381.0" y="150.0" type="line" smooth="yes"/>
    </contour>
  </outline>
</glyph>
<glyph name="segment_m" format="2">
  <outline>
    <contour>
      <point x="385.0" y="150.0" type="line" smooth="yes"/>
      <point x="385.0" y="391.0" type="line" smooth="yes"/>
      <point x="411.0" y="315.0" type="line" smooth="yes"/>
      <point x="401.0" y="315.0" type="line" smooth="yes"/>
      <point x="401.0" y="74.0" type="line" smooth="yes"/>
      <point x="375.0" y="150.0" type="line" smooth="yes"/>
    </contour>
  </outline>
</glyph>
